HIERARCHY
ROOT Hips
{
	OFFSET 0.00000 0.00000 0.00000
	CHANNELS 6 Xposition Yposition Zposition Yrotation Zrotation Xrotation 
	JOINT Lumbar
	{
		OFFSET 0 0 0
		CHANNELS 3 Zrotation Xrotation Yrotation
		JOINT Neck
		{
			OFFSET 0.00 0.2701 0.00
			CHANNELS 3 Zrotation Xrotation Yrotation
			End Site
			{
				OFFSET 0.00 0.1379 0.00
			}
		}
		JOINT RightShoulder
		{
			OFFSET 0.0119 0.2289 0.1181
			CHANNELS 3 Zrotation Xrotation Yrotation
			JOINT RightElbow
			{
				OFFSET 0.00 -0.1475 0.00
				CHANNELS 2 Zrotation Yrotation
				JOINT RightWrist
				{
					OFFSET 0.00 -0.1605 0.00
					CHANNELS 2 Zrotation Xrotation
					End Site
					{
						OFFSET 0.0040 -0.1068 0.0006
					}
				}
			}
		}
		JOINT LeftShoulder
		{
			OFFSET 0.0119 0.2289 -0.1181
			CHANNELS 3 Zrotation Xrotation Yrotation
			JOINT LeftElbow
			{
				OFFSET 0.00 -0.1475 0.00
				CHANNELS 2 Zrotation Yrotation
				JOINT LeftWrist
				{
					OFFSET 0.00 -0.1605 0.00
					CHANNELS 2 Zrotation Xrotation
					End Site
					{
						OFFSET 0.0040 -0.1068 -0.0006
					}
				}
			}
		}
	}
	JOINT RightHip
	{
		OFFSET 0.0316 -0.0424 0.0458
		CHANNELS 3 Zrotation Xrotation Yrotation
		JOINT RightKnee
		{
			OFFSET 0.00 -0.2438 0.00
			CHANNELS 1 Zrotation
			JOINT RightAnkle
			{
				OFFSET 0.00 -0.2449 0.00
				CHANNELS 3 Zrotation Xrotation Yrotation
				End Site
				{
					OFFSET 0.1237 -0.0542 0.0051
				}
			}
		}
	}
	JOINT LeftHip
	{
		OFFSET 0.0316 -0.0424 -0.0458
		CHANNELS 3 Zrotation Xrotation Yrotation
		JOINT LeftKnee
		{
			OFFSET 0.00 -0.2438 0.00
			CHANNELS 1 Zrotation
			JOINT LeftAnkle
			{
				OFFSET 0.00 -0.2449 0.00
				CHANNELS 3 Zrotation Xrotation Yrotation
				End Site
				{
					OFFSET 0.1237 -0.0542 -0.0051
				}
			}
		}
	}
}
MOTION
Frames: 17
Frame Time: 0.02
0.00134 0.00022 -0.00044 25.92279 -19.51726 -3.45471 46.01301 -2.20164 -9.20989 -15.31796 8.86629 -0.5349 -21.52537 -6.12718 -1.25633 30.51718 99.03721 9.74515 1.27608 -23.25866 1.84118 16.87088 32.1078 -168.63184 35.88482 -11.489 26.77671 -1.73103 -0.72301 -20.07912 -6.33804 -4.46223 -3.05256 30.48018 3.66618 -1.91987 -24.304 -6.26458 3.52516 2.51701
0.00106 0.0002 -0.00058 25.95089 -19.59381 -3.45454 45.96144 -2.17937 -9.22798 -15.20412 8.86131 -0.53514 -21.46547 -6.13507 -1.23538 30.45242 99.00949 9.73341 1.27678 -23.1918 2.41704 14.95416 32.14735 -162.70936 34.05656 -10.49033 26.86755 -1.79831 -0.9518 -20.07637 -6.33042 -4.45524 -3.04006 30.57893 3.73218 -1.49082 -24.30849 -6.26339 3.47789 2.48597
0.00078 0.00017 -0.00072 25.97894 -19.67025 -3.45433 45.90995 -2.15711 -9.246 -15.0904 8.85615 -0.53538 -21.40581 -6.14296 -1.21444 30.38797 98.98179 9.72169 1.27746 -23.12516 2.99117 13.04318 32.18685 -156.80495 32.2338 -9.49473 26.95826 -1.86546 -1.17999 -20.07364 -6.32282 -4.44824 -3.02759 30.67755 3.79782 -1.06367 -24.31297 -6.26222 3.43083 2.45506
0.0005 0.00015 -0.00087 26.00695 -19.74658 -3.45415 45.85852 -2.1349 -9.26404 -14.97688 8.85117 -0.53562 -21.3461 -6.15083 -1.19354 30.32343 98.95415 9.70999 1.27816 -23.0585 3.56526 11.13233 32.22629 -150.9007 30.41115 -8.49913 27.04884 -1.93254 -1.40809 -20.0709 -6.31522 -4.44126 -3.01513 30.77602 3.86358 -0.63606 -24.31745 -6.26104 3.38372 2.42412
0.00021 0.00013 -0.00101 26.03502 -19.82299 -3.45401 45.80703 -2.1127 -9.28216 -14.86329 8.8464 -0.53587 -21.28615 -6.15867 -1.17266 30.25854 98.92652 9.69829 1.27888 -22.99164 4.14108 9.21579 32.26576 -144.97842 28.58304 -7.50046 27.13949 -1.99974 -1.63675 -20.06817 -6.3076 -4.43429 -3.00264 30.87458 3.92979 -0.20627 -24.32194 -6.25983 3.33636 2.39303
-7e-05 0.0001 -0.00115 26.06304 -19.8995 -3.45367 45.75555 -2.0903 -9.29994 -14.7493 8.84042 -0.53611 -21.2271 -6.16667 -1.15162 30.19501 98.89865 9.68651 1.27949 -22.92545 4.71162 7.3166 32.3053 -139.11192 26.77163 -6.51137 27.23031 -2.06678 -1.86394 -20.06543 -6.30004 -4.42727 -2.99023 30.9733 3.99422 0.21539 -24.32638 -6.25873 3.2899 2.36249
-0.00035 8e-05 -0.00129 26.09108 -19.97569 -3.45374 45.70412 -2.06835 -9.31841 -14.63632 8.83697 -0.53635 -21.16629 -6.17435 -1.13087 30.12881 98.87135 9.67493 1.28031 -22.85798 5.29212 5.38471 32.34467 -133.14003 24.92876 -5.50415 27.32068 -2.13405 -2.09384 -20.0627 -6.29237 -4.42033 -2.97767 31.07156 4.0621 0.65269 -24.33092 -6.25742 3.24174 2.3309
-0.00063 5e-05 -0.00143 26.1192 -20.05221 -3.45342 45.65261 -2.04595 -9.33623 -14.52226 8.83103 -0.5366 -21.10714 -6.18233 -1.10996 30.06508 98.84343 9.66312 1.28094 -22.79168 5.8635 3.48276 32.3842 -127.26461 23.11463 -4.51354 27.41149 -2.20112 -2.32124 -20.05996 -6.2848 -4.41333 -2.96525 31.17029 4.12689 1.07605 -24.33537 -6.2563 3.19507 2.30024
-0.00091 3e-05 -0.00157 26.14704 -20.12908 -3.45265 45.60108 -2.0231 -9.3533 -14.40736 8.8226 -0.53684 -21.04985 -6.19065 -1.08839 30.00433 98.81506 9.65119 1.28132 -22.72683 6.4237 1.61746 32.42395 -121.50745 21.33589 -3.54326 27.50281 -2.26793 -2.54567 -20.0572 -6.27734 -4.40621 -2.95298 31.26949 4.18754 1.48049 -24.33972 -6.25543 3.15052 2.27085
-0.0012 0 -0.00172 26.17536 -20.20379 -3.45454 45.54989 -2.00317 -9.37481 -14.29874 8.83016 -0.53707 -20.98132 -6.19694 -1.06924 29.92632 98.79019 9.64043 1.28312 -22.65371 7.04816 -0.45862 32.46248 -115.07072 19.35426 -2.45605 27.59113 -2.3362 -2.78746 -20.05456 -6.26921 -4.39964 -2.93979 31.36567 4.27094 1.98815 -24.34468 -6.25319 3.09467 2.23457
-0.00148 -2e-05 -0.00185 26.20336 -20.28312 -3.45078 45.49787 -1.97686 -9.38688 -14.176 8.80297 -0.53734 -20.93685 -6.20753 -1.04588 29.8848 98.75739 9.6269 1.2819 -22.59798 7.53705 -2.08991 32.50354 -110.06767 17.80039 -1.61559 27.68578 -2.40142 -2.99243 -20.05165 -6.26254 -4.392 -2.92858 31.46839 4.30705 2.28169 -24.34832 -6.25379 3.06209 2.21254
-0.00176 -2e-05 -0.00192 26.22492 -20.37458 -3.43182 45.44466 -1.93466 -9.37326 -14.0213 8.68794 -0.53769 -20.9563 -6.23039 -1.00311 29.9435 98.70741 9.6083 1.27254 -22.59134 7.65084 -2.49032 32.55369 -109.0372 17.43414 -1.45823 27.79794 -2.45794 -3.09709 -20.04803 -6.25946 -4.38073 -2.9225 31.58797 4.20597 1.95097 -24.34866 -6.26273 3.09865 2.23251
-0.00204 -2e-05 -0.00197 26.2473 -20.47071 -3.40717 45.39058 -1.8858 -9.34997 -13.85142 8.53675 -0.53809 -21.00025 -6.25766 -0.95726 30.03875 98.64879 9.58658 1.26012 -22.6023 7.62955 -2.44637 32.60716 -109.43958 17.49505 -1.54755 27.91634 -2.51142 -3.16465 -20.04414 -6.25792 -4.36854 -2.91846 31.71425 4.05871 1.41148 -24.34763 -6.27444 3.15765 2.26629
-0.00232 -2e-05 -0.00203 26.27275 -20.56514 -3.38488 45.33597 -1.83889 -9.3312 -13.68372 8.39705 -0.53847 -21.0344 -6.28233 -0.91839 30.11726 98.59092 9.56442 1.249 -22.60377 7.67144 -2.61209 32.65621 -109.16059 17.35115 -1.51998 28.03195 -2.56661 -3.24872 -20.04035 -6.25592 -4.35722 -2.91366 31.83824 3.93752 0.99221 -24.34702 -6.28454 3.20283 2.29182
-0.00259 -2e-05 -0.0021 26.28312 -20.6581 -3.36337 45.28459 -1.79636 -9.31256 -13.53482 8.27762 -0.53883 -21.06315 -6.30871 -0.85731 30.19661 98.54571 9.54951 1.23826 -22.60987 7.70344 -2.74285 32.7127 -109.0103 17.25231 -1.5129 28.1478 -2.62068 -3.33418 -20.03663 -6.25288 -4.34391 -2.90815 31.95934 3.79507 0.46787 -24.34725 -6.29611 3.26307 2.32557
-0.00288 -2e-05 -0.00214 26.32579 -20.75486 -3.33908 45.22712 -1.74331 -9.2905 -13.34451 8.10804 -0.53925 -21.10876 -6.3336 -0.84008 30.28259 98.47299 9.5195 1.22598 -22.61265 7.72657 -2.84291 32.76055 -108.93369 17.16202 -1.52185 28.26408 -2.67604 -3.40798 -20.03274 -6.25242 -4.33461 -2.90464 32.08771 3.68556 0.10997 -24.34541 -6.30532 3.29763 2.34565
-0.00322 -1e-05 -0.0021 26.45109 -20.86365 -3.30691 45.14587 -1.66133 -9.26831 -13.03264 7.80398 -0.53988 -21.19622 -6.34483 -0.96003 30.38171 98.31761 9.44169 1.21038 -22.58641 7.73905 -2.95265 32.7382 -108.68598 16.97901 -1.5119 28.38421 -2.73799 -3.45773 -20.02806 -6.25842 -4.33611 -2.90573 32.23691 3.68206 0.28841 -24.33809 -6.30688 3.25268 2.32306
